<?xml version="1.0" standalone="no"?>
<!-- Creator: fig2dev Version 3.2.6a -->
<!-- CreationDate: 2019-01-08 08:56:52 -->
<!-- Magnification: 1.05 -->
<svg	xmlns="http://www.w3.org/2000/svg"
	xmlns:xlink="http://www.w3.org/1999/xlink"
	width="663pt" height="600pt"
	viewBox="1830 573 10515 9519">
<g fill="none">
<!-- Line -->
<rect x="4500" y="2295" width="7785" height="7785" rx="105" fill="#bfbfbf"
	stroke="#000000" stroke-width="8px"/>
<!-- Ellipse -->
<ellipse cx="8212" cy="9247" rx="922" ry="202" fill="#ffffff"
	stroke="#000000" stroke-width="8px"/>
<!-- Ellipse -->
<ellipse cx="10777" cy="6412" rx="922" ry="202" fill="#ffffff"
	stroke="#000000" stroke-width="8px"/>
<!-- Line -->
<rect x="3012" y="585" width="1128" height="1922" fill="#ffffff"
	stroke="#000000" stroke-width="8px"/>
<!-- Line -->
<rect x="6215" y="2960" width="1480" height="2522" fill="#ffffff"
	stroke="#000000" stroke-width="8px"/>
<!-- Line -->
<rect x="2761" y="669" width="1128" height="1922" fill="#ffffff"
	stroke="#000000" stroke-width="8px"/>
<!-- Line -->
<rect x="5886" y="3070" width="1480" height="2522" fill="#ffffff"
	stroke="#000000" stroke-width="8px"/>
<!-- Line -->
<rect x="2511" y="752" width="1128" height="1922" fill="#ffffff"
	stroke="#000000" stroke-width="8px"/>
<!-- Line -->
<rect x="5557" y="3179" width="1480" height="2522" fill="#ffffff"
	stroke="#000000" stroke-width="8px"/>
<!-- Line -->
<rect x="2260" y="836" width="1128" height="1922" fill="#ffffff"
	stroke="#000000" stroke-width="8px"/>
<!-- Line -->
<rect x="5228" y="3289" width="1480" height="2522" fill="#ffffff"
	stroke="#000000" stroke-width="8px"/>
<!-- Line -->
<rect x="2093" y="919" width="1128" height="1922" fill="#ffffff"
	stroke="#000000" stroke-width="8px"/>
<!-- Line -->
<rect x="5009" y="3454" width="1480" height="2521" fill="#ffffff"
	stroke="#000000" stroke-width="8px"/>
<!-- Line -->
<rect x="1842" y="1003" width="1128" height="1922" fill="#ffffff"
	stroke="#000000" stroke-width="8px"/>
<!-- Line -->
<polyline points=" 7290,9270 7290,7425 9135,7425 9135,9270" fill="#ffffff"
	stroke="#000000" stroke-width="8px"/>
<!-- Line -->
<rect x="4680" y="3563" width="1480" height="2522" fill="#ffffff"
	stroke="#000000" stroke-width="8px"/>
<!-- Line -->
<polyline points=" 9855,6435 9855,4590 11700,4590 11700,6435" fill="#ffffff"
	stroke="#000000" stroke-width="8px"/>
<!-- Line -->
<defs>
<clipPath id="cp0">
	<path clip-rule="evenodd" d="M 1830,573 H 12345 V 10092 H 1830 z
		M 7067,8087 7064,8129 7021,8126 7154,8245 7165,8236z"/>
</clipPath>
</defs>
<polyline points=" 5445,6255 7155,8235" clip-path="url(#cp0)"
	stroke="#000000" stroke-width="8px"/>
<!-- Forward arrow to point 7155,8235 -->
<polygon points=" 7021,8126 7142,8220 7067,8087 7064,8129 7021,8126"
	stroke="#000000" stroke-width="8px" stroke-miterlimit="8" fill="#000000"/>
<!-- Line -->
<defs>
<clipPath id="cp1">
	<path clip-rule="evenodd" d="M 1830,573 H 12345 V 10092 H 1830 z
		M 10614,6849 10656,6849 10656,6891 10765,6750 10755,6740z"/>
</clipPath>
</defs>
<polyline points=" 9315,8190 10755,6750" clip-path="url(#cp1)"
	stroke="#000000" stroke-width="8px"/>
<!-- Forward arrow to point 10755,6750 -->
<polygon points=" 10656,6891 10741,6764 10614,6849 10656,6849 10656,6891"
	stroke="#000000" stroke-width="8px" stroke-miterlimit="8" fill="#000000"/>
<!-- Line -->
<defs>
<clipPath id="cp2">
	<path clip-rule="evenodd" d="M 1830,573 H 12345 V 10092 H 1830 z
		M 5279,2905 5273,2947 5231,2940 5354,3069 5364,3061z"/>
</clipPath>
</defs>
<polyline points=" 4275,1575 5355,3060" clip-path="url(#cp2)"
	stroke="#000000" stroke-width="8px"/>
<!-- Forward arrow to point 5355,3060 -->
<polygon points=" 5231,2940 5343,3044 5279,2905 5273,2947 5231,2940"
	stroke="#000000" stroke-width="8px" stroke-miterlimit="8" fill="#000000"/>
<!-- Text -->
<text xml:space="preserve" x="2385" y="1504" fill="#000000" font-family="Times" font-style="normal" font-weight="normal" font-size="132" text-anchor="middle">Repository</text>
<!-- Text -->
<text xml:space="preserve" x="4995" y="1800" fill="#000000" font-family="Times" font-style="normal" font-weight="normal" font-size="192" text-anchor="middle">Pull</text>
<!-- Text -->
<text xml:space="preserve" x="4995" y="1530" fill="#000000" font-family="Times" font-style="normal" font-weight="normal" font-size="192" text-anchor="middle">Clone</text>
<!-- Text -->
<text xml:space="preserve" x="10755" y="5220" fill="#000000" font-family="Times" font-style="normal" font-weight="normal" font-size="144" text-anchor="middle">Index</text>
<!-- Text -->
<text xml:space="preserve" x="10755" y="5445" fill="#000000" font-family="Times" font-style="normal" font-weight="normal" font-size="144" text-anchor="middle">SOLR</text>
<!-- Text -->
<text xml:space="preserve" x="8190" y="8055" fill="#000000" font-family="Times" font-style="normal" font-weight="normal" font-size="144" text-anchor="middle">Database</text>
<!-- Text -->
<text xml:space="preserve" x="8190" y="8280" fill="#000000" font-family="Times" font-style="normal" font-weight="normal" font-size="144" text-anchor="middle">eXist</text>
<!-- Text -->
<text xml:space="preserve" x="12330" y="2070" fill="#000000" font-family="Times" font-style="normal" font-weight="normal" font-size="192" text-anchor="end">System</text>
<!-- Text -->
<text xml:space="preserve" x="5670" y="7695" fill="#000000" font-family="Times" font-style="normal" font-weight="normal" font-size="192" text-anchor="middle">Update</text>
<!-- Text -->
<text xml:space="preserve" x="10845" y="8010" fill="#000000" font-family="Times" font-style="normal" font-weight="normal" font-size="192" text-anchor="middle">Indexing</text>
<!-- Text -->
<text xml:space="preserve" x="5355" y="4545" fill="#000000" font-family="Times" font-style="normal" font-weight="normal" font-size="192" text-anchor="middle">Repository</text>
<!-- Ellipse -->
<ellipse cx="8212" cy="7402" rx="922" ry="202" fill="#ffffff"
	stroke="#000000" stroke-width="8px"/>
<!-- Ellipse -->
<ellipse cx="10777" cy="4567" rx="922" ry="202" fill="#ffffff"
	stroke="#000000" stroke-width="8px"/>
<!-- Text -->
<text xml:space="preserve" x="5393" y="4166" fill="#000000" font-family="Times" font-style="normal" font-weight="normal" font-size="192" text-anchor="middle">Clone</text>
</g>
</svg>
